<?xml version="1.0" encoding="utf-8"?>
<!-- Generator: Adobe Illustrator 19.0.0, SVG Export Plug-In . SVG Version: 6.00 Build 0)  -->
<svg version="1.1" id="Layer_1" xmlns="http://www.w3.org/2000/svg" xmlns:xlink="http://www.w3.org/1999/xlink" x="0px" y="0px"
	 viewBox="0 0 96 96" style="enable-background:new 0 0 96 96;" xml:space="preserve">
<style type="text/css">
	.st0{fill:#333333;}
</style>
<g id="XMLID_2_">
	<path id="XMLID_6_" class="st0" d="M35.9,51.2l8.1-8.1L23.9,22.9c-4.5,4.5-4.5,11.8,0,16.3L35.9,51.2z M55.4,46
		c4.4,2.1,10.6,0.6,15.2-4c5.5-5.5,6.6-13.4,2.3-17.6c-4.2-4.2-12.1-3.2-17.6,2.3c-4.6,4.6-6,10.8-4,15.2C44.9,48.4,23.3,70,23.3,70
		l4.1,4.1l19.8-19.8l19.8,19.8L71,70L51.2,50.3L55.4,46z"/>
</g>
</svg>
